<svg viewBox="0 0 61.76 77.66" xmlns="http://www.w3.org/2000/svg"><path d="m56.91 30.19c-4.92-7.72-12.97-12.83-22.06-14.02-.03 0-.06 0-.09.02-.02.01-.03.02-.04.04-.03.04-.03.1 0 .15l.43.67s.05.05.09.06c3.69.74 7.13 2.18 10.24 4.28 3.21 2.17 5.91 4.94 8.01 8.24 4.06 6.37 5.4 13.94 3.77 21.32-.72 3.27-1.99 6.32-3.73 9.06-.94-.06-1.94-.09-2.98-.1-3-.04-8.42.49-11.02.41-.93-.03-1.73-.66-1.96-1.57-.35-1.35-.2-2.85-.2-3.11.07-.82.14-1.64.28-2.45.39-1.88 1.02-3.73 1.88-5.5.03.01.06.02.1.02.17 0 .29-.14.38-.26.03-.03.06-.08.09-.1.11-.02.2-.06.28-.09.05-.02.09-.04.13-.05h.03c.13-.04.26-.08.4-.16.03-.02.08-.03.13-.04.09-.02.21-.05.31-.13.07-.05.12-.12.18-.18.04-.05.08-.09.11-.12.03.02.08.05.11.07.11.09.23.17.37.17h.07c.04 0 .07-.02.11-.02.1-.02.19-.04.3-.05.18-.02.28-.19.37-.36.03-.05.07-.13.1-.17.08 0 .16-.03.24-.05.07-.02.14-.04.19-.04.06 0 .13.02.21.04s.17.05.26.05c.08 0 .16.02.24.04.07.01.14.02.21.03.02.02.07.07.1.11.09.1.19.21.34.23.03 0 .09.05.14.08.09.06.18.14.31.15h.03c.18 0 .3-.15.42-.3.03-.04.08-.1.11-.13h.03c.07 0 .14 0 .2-.01.05 0 .1-.01.15-.01.03.05.07.16.1.23.09.24.18.46.38.48h.02c.17 0 .29-.13.39-.25.03-.04.08-.09.11-.12.04 0 .08.04.13.06.09.05.2.11.33.11.15 0 .27-.09.36-.17.04-.03.1-.08.12-.08.11 0 .2-.02.3-.04.05 0 .1-.02.15-.02.03.02.09.07.12.1.11.1.23.21.38.21h.06c.11-.02.21-.06.32-.09.06-.02.12-.04.17-.06h.06.11.15c.08 0 .15-.01.21-.04.15-.06.22-.21.29-.34.02-.05.06-.13.09-.15.05-.03.11-.05.18-.08.09-.03.19-.07.29-.14.08-.05.14-.11.2-.17.06-.05.12-.1.17-.14.13-.08.26-.16.4-.22.03-.01.07-.02.13-.02h.06s.04 0 .07 0c.05 0 .11 0 .17-.01h.02s.08.01.13.03c.08.02.16.05.26.05h.02c.18 0 .29-.16.39-.31.03-.04.08-.11.11-.14.03.02.08.05.11.08.1.08.21.16.35.17h.02c.11 0 .21-.03.29-.06.06-.02.11-.04.16-.04.09 0 .16-.06.19-.14.03-.1.08-.18.14-.28.02-.04.05-.08.07-.12.02-.03.11-.07.16-.1.14-.08.31-.16.35-.34.05-.18-.1-.31-.23-.43-.04-.03-.1-.09-.12-.12 0-.09-.02-.16-.04-.23-.01-.04-.02-.07-.03-.1.02-.03.07-.06.1-.09.12-.1.25-.21.24-.38 0-.11-.05-.2-.08-.27-.02-.04-.04-.09-.04-.11 0-.18-.01-.35-.03-.51 0-.02.03-.1.06-.14.05-.1.11-.23.09-.37-.03-.19-.22-.27-.43-.36l-.05-.02.04-.02c.23-.08.42-.16.45-.34.02-.15-.07-.27-.14-.37-.02-.02-.04-.06-.06-.08.02-.02.05-.05.08-.07.09-.08.21-.19.22-.34 0-.11-.02-.22-.05-.31-.02-.07-.03-.13-.03-.17 0-.27-.33-.28-.65-.28-.08 0-.19 0-.27-.01 0-.07-.01-.13-.02-.19 0-.05-.01-.1-.02-.15-.01-.11-.08-.19-.17-.26.19-.01.38-.06.48-.21.09-.13.1-.29.03-.48-.13-.37-.43-.47-.65-.49.53-.31.86-.5.74-.76-.02-.03-.03-.07-.05-.1-.04-.1-.09-.21-.15-.31-.07-.13-.22-.18-.34-.21-.04-.01-.1-.03-.13-.04 0-.03-.01-.08-.01-.12 0-.1-.01-.23-.09-.34-.1-.14-.27-.15-.41-.16-.04 0-.09 0-.12-.02-.09-.11-.17-.19-.29-.29-.1-.09-.2-.16-.28-.21.03-.04.07-.09.1-.13.14-.18.27-.35.24-.52-.04-.17-.2-.26-.35-.34-.04-.02-.11-.06-.14-.08.01-.04.05-.1.07-.13.08-.13.16-.28.12-.44-.06-.2-.28-.25-.5-.29-.04 0-.09-.02-.14-.03.03-.04.07-.09.1-.13.16-.2.31-.39.19-.57-.03-.05-.07-.1-.11-.15-.05-.07-.11-.14-.13-.2-.09-.22-.27-.34-.49-.34-.28 0-.58.18-.81.31-.05.03-.1.06-.15.08-.04-.02-.07-.02-.11-.02-.08 0-.14.03-.2.05-.1-.08-.24-.09-.35-.09-.02 0-.05 0-.08 0-.03-.06-.06-.15-.09-.23-.04-.1-.07-.19-.1-.26-.05-.11-.12-.18-.19-.25s.1-.06.16-.09c.41-.23.98-.55 1.1-.98.05-.16.02-.33-.06-.48-.04-.07-.12-.14-.29-.14-.08 0-.16.01-.24.03-.05 0-.09.02-.13.02 0-.04 0-.08 0-.11 0-.18.01-.4-.17-.5-.11-.06-.24-.06-.35-.06-.07 0-.13 0-.18-.01-.04-.01-.13-.09-.18-.14-.11-.1-.22-.21-.37-.21-.15 0-.28.12-.4.26.01-.1 0-.21-.03-.31-.01-.03-.02-.06-.04-.1-.04-.1-.07-.19-.09-.29-.02-.13-.12-.23-.19-.3-.03-.03-.08-.08-.09-.1 0-.04 0-.1 0-.16 0-.1.01-.2-.02-.32-.06-.17-.22-.23-.32-.27-.03-.01-.08-.03-.09-.04-.02-.02-.02-.07-.03-.11-.02-.11-.05-.3-.27-.37-.03 0-.09-.05-.13-.08-.11-.08-.24-.17-.41-.17s-.29.12-.39.23c-.03.03-.08.08-.11.1-.03-.02-.09-.08-.13-.12-.11-.11-.22-.22-.37-.22-.16 0-.27.13-.37.24-.02.02-.05.06-.07.08-.02-.02-.05-.05-.07-.07-.09-.1-.2-.21-.36-.21-.11 0-.21.04-.29.08-.05.02-.11.05-.14.05-.07 0-.14 0-.21-.01-.07 0-.14-.01-.21-.01-.05 0-.08-.01-.12-.02-.03-.01-.07-.02-.12-.03-.08-.08-.2-.1-.29-.13-.02 0-.06-.01-.09-.02 0-.03.02-.07.03-.09.04-.11.08-.25.02-.39l-.02-.04c-.05-.13-.11-.27-.18-.39-.08-.13-.22-.18-.32-.22-.04-.01-.1-.04-.11-.05-.11-.12-.2-.18-.32-.25l-.03-.02s-.03-.08-.05-.11c-.05-.13-.11-.31-.29-.36-.04-.01-.08-.02-.12-.02-.09 0-.18.02-.25.05-.05.01-.1.03-.14.03s-.1-.02-.16-.03c-.08-.02-.17-.04-.27-.04-.02 0-.04 0-.06 0-.13.01-.23.08-.31.13-.04.03-.09.05-.12.07-.03-.01-.08-.05-.12-.08-.1-.08-.22-.16-.35-.16-.02 0-.04 0-.05 0-.17.03-.26.21-.34.36-.02.04-.05.11-.08.14-.06 0-.12 0-.19-.02-.07 0-.14-.02-.21-.02-.03-.01-.08-.06-.11-.09-.08-.08-.17-.16-.3-.19-.03 0-.07 0-.1 0-.07 0-.13.01-.19.02-.05 0-.09.02-.12.02-.02 0-.03 0-.03 0-.04-.01-.09-.06-.13-.11-.06-.06-.13-.13-.22-.17s-.18-.05-.25-.05c-.03 0-.06 0-.09 0s-.05 0-.07 0c-.05 0-.07 0-.07 0-.09-.06-.19-.08-.29-.1-.06-.01-.12-.02-.16-.04-.01-.03-.03-.09-.04-.13-.03-.12-.07-.28-.2-.36-.02-.01-.06-.08-.08-.12-.05-.1-.11-.21-.23-.28-.06-.04-.13-.05-.21-.05-.06 0-.12 0-.18.02-.05 0-.09.01-.12.01h-.02s-.06-.07-.09-.11c-.07-.09-.15-.21-.29-.26-.03-.01-.06-.02-.09-.02-.14 0-.25.09-.36.17-.04.03-.1.08-.13.09-.04 0-.09-.01-.14-.01s-.1 0-.14 0-.08 0-.11 0c-.03-.03-.08-.11-.11-.16-.11-.17-.22-.34-.41-.34-.11 0-.22.04-.31.07-.07.02-.13.05-.18.05h-.01s-.1 0-.17-.01c-.1 0-.2-.02-.31-.02-.12 0-.22.01-.31.04-.32.11-.28.59-.25 1.01 0 .05 0 .11.01.17-.1-.05-.2-.11-.34-.11-.15 0-.26.09-.36.18l-.03.03s-.02-.09-.02-.13c-.07-.35-.17-.89-.59-.9h-.02c-.1 0-.19.03-.28.05-.07.02-.13.03-.17.03h-.02s-.04 0-.07 0c.13.34.03.75-.28 1.06-.12.13-.28.29-.48.43h.08c.03 0 .1-.02.16-.03.03 0 .05-.01.08-.02h.02c.11-.05.28-.12.49-.12.17 0 .33.04.46.13.03.02.07.05.1.07.2.16.32.41.32.67 0 .5-.42.87-.5.93-.61.5-1.39.8-2.21.84-.09.19-.25.36-.46.47-.02 0-.03.02-.05.02.03.04.06.08.08.13.11.22.11.48 0 .7-.02.04-.04.07-.06.11.23.13.46.26.68.38.36.2.79.33 1.28.41.23.03.46.06.7.06.03 0 .07-.01.11-.02.14-.02.31-.05.48-.05.49 0 .74.22.87.41l.02.03c.18.29.22.62.11.94-.16.46-.6.78-.96.98h.01c.21.14.34.38.35.63 0 .69-.39 1.34-1.02 1.71.24.04.48.08.7.08.11 0 .21 0 .29-.03s.28-.12.42-.17c.65-.27.75-.31.96-.31.2 0 .4.08.53.23.12.13.2.3.24.49.1.47-.12 1.01-.22 1.21-.23.48-.68.86-1.25 1.04-.08.16-.2.3-.37.41-.3.19-.63.35-.97.47-.02.06-.05.12-.09.18h.07c.24 0 .44.06.62.17.08.05.15.12.21.19.2.26.26.59.15.89-.19.51-.81.75-1.25.86-.02.02-.03.03-.05.05-.74.66-1.78 1.04-2.85 1.04-.29 0-.58-.03-.87-.08-.17.2-.43.32-.7.33h-.06c-.35 0-.7-.04-1.04-.13-.1.27-.34.51-.72.58-.12.02-.25.03-.4.03-.29 0-.62-.05-.92-.13.05 1.47.46 4.32.49 4.36.07.1.15.2.25.25.04.02.08.03.12.03h.05c.1 0 .19-.02.27-.04h.03c.06-.02.12-.04.17-.04.03 0 .09.02.14.05.08.04.18.08.3.08.12 0 .22-.05.3-.09.04-.02.1-.05.12-.05s.07.05.1.07c.07.06.17.14.29.15.02 0 .06.03.1.06s.09.07.15.1c.03.01.05.02.08.03.04.01.08.02.12.02.07 0 .13-.02.19-.03.03 0 .07-.02.1-.02.1.05.2.07.29.09.06 0 .13.02.16.04.06.05.12.12.18.2.04.05.08.11.13.16.02.03.05.1.06.16.03.1.06.22.15.31.02.02.05.11.06.16.04.13.08.28.2.37.06.04.13.07.22.07s.18-.02.27-.05l.15-.03c.61 1.4 1.16 2.79 2.38 4.03.77.77 1.18 1.47 1.42 2.16.19.71.21 1.41.24 2.17.02 1.09-.43 2.31-.83 3.47-.04.12-.09.25-.14.38-.02.06-.04.11-.07.16v.02c-.03.05-.05.1-.07.15v.02s-.05.09-.07.14v.03s-.05.08-.07.12v.03s-.06.08-.08.12v.02s-.06.09-.09.14c-.56.99-1.87 1.69-4.77 2.03-.71.05-1.37.07-1.99.07-.48 0-.88-.38-.91-.86v-.13c-.12-1.81-.38-5.3-.38-5.29-.01-.22-.04-1.01-.04-1 0-.08-.13-3.56-.15-4.24-.03-1.19-.25-7.16-.39-11.45.24.21.52.39.82.5.31.11.84.2 1.16.14.12-.02.16-.08.15-.16-.03-.24-.56-.65-.68-.75-.39-.32-.65-.79-.71-1.29.16.27.34.51.56.73.15.15.4.21.58.34.59.43 1.33.66 2.06.65.16 0 .23-.19.12-.3-.18-.18-.31-.4-.38-.65.11.27.4.42.68.52 1.16.39 2.57.16 3.49-.66-.28-.02-.56-.05-.8-.21.34.06.7.08 1.04.02.16-.03 1.04-.26.82-.55 0-.01-.02-.02-.04-.03-.15-.1-.48 0-.62.02-.86.13-1.9.07-2.66-.4-.04-.03-.08-.05-.12-.08.89.02 1.78-.26 2.5-.79-.48.05-.94-.19-1.36-.43.84.33 1.91.05 2.64-.42.04-.03.09-.06.1-.12.01-.08-.07-.14-.14-.17-.15-.07-.31-.12-.47-.14.35.03.71.04 1.05-.07.34-.1.65-.32.8-.64.08-.17.2-.51.16-.73 0-.03-.02-.07-.03-.09-.02-.03-1.04.42-1.17.45-.45.1-.94.03-1.4-.05-.65-.12-1.28-.33-1.86-.63.04-.02.09-.04.13-.06h.02c.06-.04.12-.08.18-.12l.04-.03c.06-.05.12-.09.17-.15-.29 0-.58-.19-.7-.45.48.22 1.04.32 1.54.17.51-.16.93-.62.93-1.15-.04.02-.08.03-.12.05-.28.11-.58.18-.89.22-.52.06-1.05 0-1.54-.16-.22-.07-.38-.15-.53-.25-.1-.07-.19-.15-.29-.25.08-.03.16-.08.22-.14-.23-.16-.4-.42-.45-.7.04.17.22.26.39.31.92.28 1.97.1 2.86-.22.28-.1 1.25-.57.96-1.01-.11-.17-.65-.01-.82-.02-.53-.01-1.07-.09-1.58-.24-.32-.1-.63-.24-.92-.4-.52-.29-1.05-.59-1.54-.95.31-.05.6-.2.75-.5-.53-.08-1.03-.31-1.44-.65-.22-.18-.43-.42-.45-.7l.06.03c.33.16.69.24 1.05.25.3 0 .81.02 1.08-.12.09-.05.16-.15.12-.25s-.17-.14-.27-.17c-.18-.07-.33-.2-.42-.36 1.01.43 2.25.26 3.1-.44.08-.07.3-.32.18-.41h-.01c-.09-.07-.28.05-.37.07-.13.03-.27.07-.4.08-.28.01-.56-.02-.83-.1-.54-.16-.96-.57-1.38-.91.21.05.48-.09.29-.33l-.1-.14c.27.34 1.04.31 1.38.13.17-.09.33-.25.47-.39.07-.07.15-.21.09-.27-.02-.02-.06-.03-.13-.03-1.36.12-2.81-.05-3.94-.81-.08-.05-.16-.11-.24-.17l-.03-.02-.29-.21c-.41-.29-.82-.59-1.16-.96.08.01 1.74.24 2.17.25.14 0 .44-.16.71-.09.25.07.52.09.78.09.23 0 .45-.02.68-.05.21-.03.41-.09.6-.17.16-.06.36-.1.44-.25 0 0 .01-.02.01-.03s.02-.1 0-.14c-.04-.1-.15-.12-.25-.14-.56-.09-1.09-.31-1.58-.58-.21-.12-.41-.25-.62-.37-.23-.13-.5-.19-.72-.33-.2-.12-.36-.3-.53-.46-.35-.34-.76-.66-1.03-1.05.19.03.39.04.58.01-.09-.06.46.05.81-.05.14-.04.79-.31.8-.55 0-.03 0-.05-.02-.08-.05-.07-.14-.09-.22-.12-.48-.14-.95-.5-1.34-.8-.43-.34-.86-.82-1.13-1.29.03.01.06.02.09.03.24.08.48.14.73.15.28 0 .57-.05.82-.19.08-.04.26-.17.27-.28 0-.02 0-.03 0-.05-.04-.01-.09-.03-.13-.05-.13-.06-.24-.15-.32-.26.51.3 1.14.44 1.73.18.12-.05.23-.13.32-.21.06-.05.14-.12.2-.2.03-.04.05-.09.06-.13.02-.16-1.87-.38-3.3-1.35-.41-.28-.85-.55-1.12-.98-.11-.18-.18-.37-.23-.57.04 0 .08.02.12.02.1.01.29.03.43-.02.09-.03.15-.09.15-.19 0-.02 0-.04 0-.06 0-.03-.02-.06-.04-.09s-.04-.05-.06-.08c.15.13.32.22.51.27.06.02.13.03.19.04.06 0 .12.02.18.02.18.01.37 0 .55-.03.12-.02.22-.03.32-.06.17-.04.32-.1.48-.22.01 0 .02-.02.04-.03.01-.01.02-.02.03-.04.02-.03.03-.05.02-.08v-.02s-.09-.05-.14-.06c-.45-.03-.88-.21-1.22-.5.05.01.09.02.14.03.15.03.31.06.45.07.19.02.39 0 .56-.08-.08-.02-.16-.07-.21-.14.14.18.43-.01.49-.17v-.02c-.94-.19-1.92-.16-2.74-.74-.27-.19-.49-.42-.72-.66-.17-.18-.35-.38-.48-.59.27-.02.55-.12.72-.32.05-.06.08-.12.11-.19v-.03c-.17-.02-.38-.02-.55-.09-.23-.09-.42-.27-.6-.44.21.05.44.06.65.07.21 0 .39-.02.59-.09-.1-.03-.2-.08-.29-.13.13.07.33.07.46.04.14-.04.2-.16.26-.28l.03-.08c-.14 0-.27-.04-.41-.06-.16-.03-.33-.05-.49-.08-.36-.06-.67-.11-.98-.32-.88-.58-1.01-1.73-1.06-2.7-.02-.31-.23-.66-.31-.97-.09-.35-.15-.7-.17-1.06 0-.08 0-.17-.04-.24-.03-.07-.11-.14-.19-.13-.11 0-.18.13-.21.24-.04.13-.09.25-.12.38-.39 1.37.08 3.63-1.5 4.37-.24.11-.83.42-1.6.37v.09c.02.1.14.12.24.16h.02v.03c0 .01-.02.02-.03.03-.12.08-.25.13-.4.09-.02 0-.03.02-.03.04v.04c.01.03.04.05.07.07.34.23.88.48 1.29.34l-.02.03c-.16.21-.35.39-.56.54l-.16.12s0 .05.03.08.07.03.11.03c.24-.02.55-.09.73-.25v.03c-.02.03-.04.07-.06.1h.07c0 .02.02.04.04.05h.05c.09 0 .21-.06.31-.13-.06.11-.12.21-.19.32-.05.08-.1.15-.15.23l-.03.04c-.46.64-1.06 1.18-1.74 1.58-.43.25-.9.44-1.39.44 0 .02.02.03.03.05.16.26.43.45.76.4-.07.07-.16.13-.25.16.05.1.16.21.28.26.04.02.08.03.12.03.07 0 .14 0 .21-.02.06-.01.13-.03.19-.06h.03c-.09.1-.21.19-.33.26-.28.16-.58.26-.89.3.08.1.16.18.27.24.12.05.27.05.36-.04 0 .08.06.15.13.2.26.17.62.16.88-.01-.03-.03-.06-.06-.1-.08.18.1.4.11.61.06.32-.07.54-.2.66-.53v.23l-.05.06c-.33.43-.66.86-1.04 1.25-.31.32-.64.61-1.02.83-.63.38-1.36.58-2.08.73-.28.06-.56.11-.84.12-.11 0-.47-.09-.54 0-.04.05-.05.11-.04.17v.02.03s.02.02.02.04v.03h.02l.02.04.02.04.02.03v.02l.03.03s.05.06.08.09v.02c.05.04.09.08.12.1.1.08.21.17.33.22.07.03.3.06.42.05-.15.07-.32.11-.49.11s0 .03 0 .05c0 .09.08.17.15.23.25.19.66.34.97.39s.64.05.94-.06c.12-.04.23-.1.33-.18.05-.04.1-.08.14-.13.15.07.31.12.48.15.11.02.23.03.35.03-.21.32-.56.8-1.06 1.3-.09.09-.18.17-.28.26-.93.83-2.29 1.63-4.12 1.69 0 0 .02.55.76.36 0 0 .5.81 1.66.4-.04.03-.76.52-3.1.92-.11.02-.19.13-.16.24.07.29.36.78 1.4.86 0 0 1.59.61 2.72-.45 0 0 .35.12.86-.66s-.17.85-1.21 1.27l-.04.02s.62.28 1.57-.28c-.26.27-.54.54-.85.81-1.24 1.06-2.89 1.98-4.9 2.05-.02 0-.04 0-.06 0 0 0 .13 1.4 1.87 1.25 0 0 .31 1.4 2.63.18 0 0-.49.58-1.58 1.14-.82.42-1.99.83-3.56.98 0 0 .12.26.71.23 0 0-.47.12-1.09.16.1.11 1.17 1.1 2.77.31l-.61.42s1.18.61 3.71-.49c-.03.03-2.25 1.94-6.6 2.13 0 0 0 .01.01.04.04.13.25.53 1.15.59 0 0-.38.16-.61.12 0 0 .68.57 1.26.4 0 0 .18.16.2.17.34.22.82.12 1.17-.02.38-.15.71-.41.92-.76-.03.07-.06.13-.06.21 0 .07 0 .15.06.2.09.1.24.06.36 0-.06.06-.12.11-.18.17-.37.31-.79.57-1.24.76s-.93.31-1.41.35c-.16.01-.72-.05-.82.13-.03.06-.01.15.1.27.08.09.27.17.37.23.03.02.05.03.08.05.02.01.05.03.07.04.03.02.07.04.1.05.04.02.08.04.13.06.03.01.06.03.09.04l.15.06c.02 0 .05.02.07.03.08.03.15.05.23.07h.05c-.07.04-.14.06-.21.09-.65.23-2.96 1.13-2.79 1.31.38.4 1.75-.11 2.32-.04-.08.15-1.63 1.17-1.48 1.26.14.09.32.1.49.1.84-.02 1.67-.35 2.29-.91l.05-.04c-.11.42-.47.92-.81 1.18-.1.08-.22.16-.27.28-.02.07-.02.13 0 .18.06.12.19.13.31.12.44-.03.86-.23 1.17-.54-.08.08-.1.26-.17.36-.03.04-.26.2-.27.23-.07.29.55.03.65-.02.32-.17.61-.39.86-.65-.08.09-.29.41-.23.52.03.05.08.09.14.11.26.1.55-.11.74-.27.15-.13.25-.29.4-.43.18-.16.34-.35.51-.53-.12.18-.2.38-.23.6.22-.07.44-.17.63-.29.09-.06.17-.12.25-.19-.78.68-1.59 1.32-2.48 1.84-.84.5-1.94 1.08-2.92 1.08-.04 0-.09.02-.1.06-.03.07.05.12.12.14.3.1.62.14.94.14.31 0 .49-.12.78-.2l-.3.24s.41.04.49.03c.16 0 .3-.03.44-.08.31-.11.6-.21.86-.41l-.41.31s-.06.06-.08.09c-.13.22.26.22.37.19-.35.09-.67.27-.94.52.14.12.32.19.5.21.75.1 1.67-.12 2.19-.71-.07.08-.12.18-.15.28 0 .03-.01.07.01.09.01.01.03.01.05 0 .06 0 .13-.02.19-.04.49-.16 1.1-.4 1.46-.8-.32.35.45.39.6.35.4-.11.79-.58 1.05-.89.29-.35.51-.77.57-1.22.05.14 0 .29-.06.42-.08.17-.18.34-.12.54.03.09.11.17.21.17.12 0 .22-.04.32-.11v.59c-.03.09-.06.17-.09.26-.06.22-.11.46 0 .66s.04.07.07.09c-.12 6.63-.41 15.39-1 21.44-.08.78-.63 1.44-1.39 1.64-2.73.73-4.4.86-6.08.65-.57-.07-1.32-.51-1.68-.95-.71-.87-1.37-1.78-1.98-2.74-2.1-3.3-3.48-6.91-4.09-10.74-.59-3.7-.44-7.43.44-11.09 0-.04 0-.07-.02-.1l-.43-.67s-.08-.07-.13-.06c-.02 0-.04 0-.05.02-.03.02-.05.04-.06.07-2.86 8.65-1.62 18.1 3.31 25.82 4.49 7.04 11.48 11.88 19.66 13.61 7.79 1.64 15.96.2 22.71-4.01 7.09-4.43 12-11.37 13.8-19.53 1.78-8.05.32-16.32-4.11-23.27zm-20.04 16.06s.02.01.02.02l.04.02s.09.04.13.07c.07.03.15.07.22.12.06.04.11.11.17.18.03.04.06.08.1.12.02.03.04.05.07.06.06.05.15.08.24.08h.04c-.43.56-.69.89-.71.89-.27 0-.5-.56-.5-1.03 0-.06.06-.25.17-.53zm-5.88 1.03c.08-.08.11-.2.15-.3.01-.04.03-.08.04-.11v-.02s.09.02.12.03c.08.02.17.05.25.05.06 0 .12-.01.17-.04h.03.11c.05 0 .1.01.16.01.09 0 .16-.02.22-.05.05-.03.1-.06.15-.09.08-.05.16-.09.24-.14.07-.03.12-.07.18-.11.07-.04.13-.08.2-.11.14-.06.2-.2.25-.32.01-.03.03-.06.04-.09.03.02.06.04.09.05.1.07.22.14.35.14h.07s.01 0 .02-.01c-.04 1.1-.4 3.69-.59 3.69-.65 0-1.53-1.25-2.27-2.59zm18.86 17.35c-8.83 1.72-17.18 4.69-25.61 7.98-.24-.05-.48-.1-.72-.15-1.95-.43-3.82-1.06-5.6-1.86 3.48-1.07 9.27-2.95 10.41-3.33 3.86-1.26 8.43-2.69 13.12-3.74 4.66-.88 6.83-1.32 10.63-1.48-.69.9-1.44 1.76-2.24 2.58z" fill="#fff"/></svg>